<svg xmlns="http://www.w3.org/2000/svg" xmlns:xlink="http://www.w3.org/1999/xlink" id="Layer_1" x="0" y="0" version="1.1" viewBox="0 0 1366 768" style="enable-background:new 0 0 1366 768" xml:space="preserve"><style type="text/css">.st0{fill:url(#SVGID_1_)}</style><switch><g><g><linearGradient id="SVGID_1_" x1="479.711" x2="479.711" y1="613.815" y2="168.155" gradientUnits="userSpaceOnUse"><stop offset="0" style="stop-color:#005b97"/><stop offset="1" style="stop-color:#f0f"/></linearGradient><path d="M521.6,517.4c-4.8-1.9-9.9-2.9-15.5-2.9c-6.5,0-12,1-16.4,2.9c-3.1,1.4-5.9,3-8.5,4.7 c-2.8-2.3-5.9-4-9.4-5.3c-4.5-1.6-9.2-2.4-14.3-2.4c-5.5,0-10.8,0.7-15.9,2.2s-9.4,3.5-12.9,5.9c-2.1,1.4-3.7,2.9-4.9,4.7 c-1.1,1.8-1.7,4-1.7,6.6v17.5v7.3v24.7c0,4.1,1,7,3.1,8.6c2.1,1.6,5.3,2.4,9.8,2.4c2.2,0,4.3-0.1,6.2-0.4 c1.9-0.3,3.4-0.6,4.5-0.9v-34.4v-7.3v-15.1c1.3-0.7,2.8-1.5,4.7-2.2c1.9-0.7,4-1,6.3-1c3.2,0,5.8,0.8,8,2.5 c2.1,1.7,3.2,4.4,3.2,8v7.8v7.3v24.7c0,4.1,1,7,3.1,8.6s5.4,2.4,10,2.4c2.2,0,4.3-0.1,6.2-0.4c1.9-0.3,3.4-0.6,4.5-0.9v-34.4 v-7.3v-10.8c0-1.1-0.1-2.2-0.3-3.2c1.3-1,2.8-2,4.5-2.7c2.2-1,4.5-1.5,6.9-1.5c3.3,0,6,0.8,8,2.5c2,1.7,3,4.4,3,8v7.8v7.3v24.7 c0,4.1,1,7,3.1,8.6s5.4,2.4,10,2.4c2.2,0,4.3-0.1,6.2-0.4c1.9-0.3,3.3-0.6,4.3-0.9v-34.4v-7.3v-8.4c0-6.9-1.4-12.4-4.3-16.6 C530.2,522.3,526.3,519.3,521.6,517.4z" class="st0"/><linearGradient id="SVGID_00000106146594183722957250000014945566587799124666_" x1="590.119" x2="590.119" y1="613.815" y2="168.155" gradientUnits="userSpaceOnUse"><stop offset="0" style="stop-color:#005b97"/><stop offset="1" style="stop-color:#f0f"/></linearGradient><path style="fill:url(#SVGID_00000106146594183722957250000014945566587799124666_)" d="M610.4,518.9 c-5.5-2.9-11.9-4.4-19.2-4.4c-5,0-9.8,0.8-14.4,2.4c-4.6,1.6-8.8,4-12.4,7.3c-3.7,3.2-6.6,7.4-8.8,12.4s-3.3,10.9-3.3,17.7 c0,9.2,1.9,17,5.6,23.1c3.7,6.2,8.8,10.8,15.4,13.9c6.5,3.1,13.9,4.6,22.1,4.6c5.6,0,10.7-0.5,15.1-1.6s7.9-2.7,10.4-4.8 c2.5-2.1,3.7-4.8,3.7-8c0-1.9-0.5-3.7-1.5-5.4c-1-1.7-2.3-3-3.9-4c-2.4,1.4-5.6,2.7-9.6,4c-3.9,1.3-8.1,1.9-12.6,1.9 c-5.5,0-10.3-1.2-14.3-3.7c-3.2-2-5.4-5.1-6.7-9.2l41.8-6.2c3.2-0.4,5.7-1.5,7.5-3.2c1.8-1.7,2.7-4.2,2.7-7.5 c0-6.6-1.5-12.4-4.6-17.4C620.2,525.8,615.9,521.8,610.4,518.9z M574.5,549.1c0.5-5.1,2.1-9.2,4.9-12.1c3.2-3.2,7.2-4.9,12-4.9 c4.6,0,8,1.3,10.4,3.8c2.3,2.5,3.6,5.3,3.8,8.3L574.5,549.1z"/><linearGradient id="SVGID_00000148651213149361456320000001129220140469107347_" x1="677.169" x2="677.169" y1="613.815" y2="168.155" gradientUnits="userSpaceOnUse"><stop offset="0" style="stop-color:#005b97"/><stop offset="1" style="stop-color:#f0f"/></linearGradient><path style="fill:url(#SVGID_00000148651213149361456320000001129220140469107347_)" d="M702.5,488.2c-2.2,0-4.3,0.2-6.2,0.5 c-1.9,0.3-3.3,0.6-4.3,1v27.2c-1-0.4-2-0.8-3.2-1.1c-3-0.8-6.4-1.3-10.2-1.3c-7.3,0-14,1.5-20.1,4.5c-6.1,3-10.9,7.5-14.4,13.5 s-5.3,13.7-5.3,23c0,8.9,1.8,16.4,5.3,22.4c3.5,6,8.5,10.5,14.9,13.5s14.1,4.5,23,4.5c6,0,11.2-0.7,15.8-2.2 c4.6-1.4,8.3-3.1,11.2-5c2.3-1.4,4-2.9,5.1-4.7c1.1-1.8,1.6-3.9,1.6-6.5v-46.4v-4.6v-27.1c0-4.3-1-7.2-3-8.8 C710.5,489,707.2,488.2,702.5,488.2z M687.7,576.3c-1.8,0.6-3.9,0.9-6.2,0.9c-5.7,0-10.3-1.8-13.6-5.3c-3.3-3.5-5-9-5-16.4 c0-5.1,0.8-9.3,2.4-12.6c1.6-3.3,3.8-5.7,6.7-7.3s6.2-2.4,9.9-2.4c3.2,0,6,0.5,8.5,1.6c0.6,0.3,1.2,0.6,1.8,0.9v38.8 C690.9,575.1,689.5,575.7,687.7,576.3z"/><linearGradient id="SVGID_00000078731469054018204980000013864625962436429755_" x1="770.995" x2="770.995" y1="613.815" y2="168.155" gradientUnits="userSpaceOnUse"><stop offset="0" style="stop-color:#005b97"/><stop offset="1" style="stop-color:#f0f"/></linearGradient><path style="fill:url(#SVGID_00000078731469054018204980000013864625962436429755_)" d="M794.5,515.8c-2.2,0-4.3,0.2-6.2,0.5 c-1.9,0.3-3.4,0.6-4.5,1v34.9v7.2v15.5c-1,0.5-2.4,1.1-4.3,1.6c-1.9,0.5-4.3,0.8-7.2,0.8c-4.6,0-8.1-1.1-10.6-3.2 c-2.5-2.1-3.7-5.6-3.7-10.5v-4.1v-7.2v-25.2c0-4.4-1-7.3-3.1-8.8c-2.1-1.5-5.4-2.3-10-2.3c-2.2,0-4.3,0.2-6.2,0.5 c-1.9,0.3-3.3,0.6-4.3,1v34.9v7.2v4.3c0,7.5,1.6,13.7,4.7,18.4c3.1,4.7,7.5,8.2,13.2,10.4c5.7,2.2,12.3,3.3,19.9,3.3 c6.1,0,11.6-0.6,16.5-1.8c4.9-1.2,9.1-2.9,12.5-5c2.2-1.4,3.9-3,4.9-4.8c1-1.8,1.5-4,1.5-6.5v-18.3v-7.2v-25.2 c0-4.4-1-7.3-3.1-8.8S799.1,515.8,794.5,515.8z"/><linearGradient id="SVGID_00000140003088047281861770000016166291778915090328_" x1="855.735" x2="855.735" y1="613.815" y2="168.155" gradientUnits="userSpaceOnUse"><stop offset="0" style="stop-color:#005b97"/><stop offset="1" style="stop-color:#f0f"/></linearGradient><path style="fill:url(#SVGID_00000140003088047281861770000016166291778915090328_)" d="M861.3,546.4l-6.4-1.6 c-3.1-0.6-5.2-1.5-6.5-2.5s-1.8-2.2-1.8-3.6c0-2.1,1.1-3.7,3.2-4.7c2.1-1,5.1-1.5,8.9-1.5c2.4,0,5.1,0.3,7.9,0.8 c2.8,0.5,5.4,1.2,7.8,2.1c2.4,0.9,4.2,1.7,5.3,2.4c1.4-1.1,2.5-2.4,3.3-4c0.8-1.6,1.3-3.5,1.3-5.6c0-3.1-1.2-5.7-3.7-7.7 c-2.4-2.1-5.8-3.6-10-4.6c-4.2-1-8.9-1.5-14-1.5c-10.2,0-18.3,2.2-24.3,6.6c-6,4.4-9,10.3-9,17.8c0,6.6,2.1,11.8,6.3,15.5 c4.2,3.8,10.6,6.6,19.1,8.4l6.7,1.6c3.2,0.5,5.5,1.4,6.9,2.5c1.4,1.1,2.1,2.6,2.1,4.5c0,4.5-3.9,6.7-11.6,6.7 c-5.1,0-9.6-0.7-13.6-2.2c-4-1.4-7.5-3-10.4-4.7c-1.5,1-2.7,2.3-3.7,3.9c-1,1.7-1.4,3.6-1.4,5.8c0,5,2.8,8.8,8.5,11.3 c5.6,2.6,12.8,3.8,21.5,3.8c11.2,0,19.7-2.2,25.5-6.6c5.8-4.4,8.8-10.5,8.8-18.3c0-6.4-2.1-11.6-6.2-15.5 C877.6,551.6,870.8,548.5,861.3,546.4z"/><linearGradient id="SVGID_00000103246758895306944530000003164754009885777558_" x1="935.527" x2="935.527" y1="613.815" y2="168.155" gradientUnits="userSpaceOnUse"><stop offset="0" style="stop-color:#005b97"/><stop offset="1" style="stop-color:#f0f"/></linearGradient><path style="fill:url(#SVGID_00000103246758895306944530000003164754009885777558_)" d="M961.1,521.5 c-6.6-4.6-15.4-6.9-26.5-6.9c-3.8,0-7.8,0.3-11.9,0.9c-4.1,0.6-7.7,1.5-10.8,2.8c-4.9,2-7.3,5.3-7.3,9.7c0,1.9,0.4,3.7,1.4,5.5 c0.9,1.8,2,3.1,3.3,3.9c3.1-1.3,6.6-2.4,10.4-3.3c3.9-1,7.8-1.4,11.9-1.4c5.2,0,9.2,0.8,12,2.4c2.8,1.6,4.2,4.2,4.2,7.8v1.9 l-21.2,2.2c-8.8,0.9-15.5,3.2-19.9,7.1c-4.5,3.9-6.7,9.4-6.7,16.7c0,8.4,3.2,14.7,9.6,19c6.4,4.2,15.1,6.4,25.9,6.4 c6.1,0,11.5-0.6,16.2-1.7c4.7-1.1,8.7-2.6,11.9-4.5c2.1-1.2,3.9-2.6,5.3-4.2c1.4-1.6,2.1-3.8,2.1-6.5v-36.2 C971,533.2,967.7,526.1,961.1,521.5z M948,575.9c-1.1,0.6-2.8,1.2-5.2,1.7s-4.8,0.7-7.3,0.7c-4.5,0-7.7-0.8-9.7-2.3 c-2-1.5-3-3.6-3-6.1s1.1-4.5,3.2-5.7s5-2,8.6-2.2l13.4-1.3V575.9z"/><linearGradient id="SVGID_00000098905791862974038930000017589561137056116649_" x1="698.183" x2="698.183" y1="613.815" y2="168.155" gradientUnits="userSpaceOnUse"><stop offset="0" style="stop-color:#005b97"/><stop offset="1" style="stop-color:#f0f"/></linearGradient><path style="fill:url(#SVGID_00000098905791862974038930000017589561137056116649_)" d="M630,367.8c-6.2,3.2-12.1,7-17.6,11.3 c-30.3,23.8-47.7,54.4-49.3,93.4c-0.1,2.1,0.3,2.7,2.6,2.7l265.1,0c1.9,0,2.7-0.3,2.6-2.5c-0.3-12-2.3-23.7-6.3-35 c-11-31.1-31.8-54-60.5-69.8c-2-1.1-1.8-1.8-0.9-3.4c6.7-11.9,13.2-23.8,19.8-35.8c1.4-2.5,1.1-4.5-0.8-6c-2.5-1.8-5.1-1.1-6.8,2 c-6.7,12-13.4,23.9-20,36c-1,1.9-1.9,2-3.7,1.2c-14.5-6.1-29.7-9.7-45.4-10.8c-23.3-1.6-45.8,2-67.3,11.1 c-1.5,0.6-2.1,0.2-2.7-1.1c-2.2-4.1-4.5-8.2-6.8-12.2c-4.5-8.1-9-16.3-13.6-24.4c-1.7-3-4.6-3.6-6.9-1.6 c-1.7,1.5-1.9,3.4-0.4,6.1c6.6,11.9,13.2,23.9,19.9,35.8C631.7,366.3,631.7,366.9,630,367.8z M760.6,403.3 c6.1,0,11.2,5.1,11.2,11.3c0,6.1-5.1,11.2-11.2,11.2c-6.1,0.1-11.3-5.1-11.3-11.2C749.3,408.3,754.3,403.3,760.6,403.3z M635.7,403.3c6.3,0,11.4,5.1,11.3,11.4c0,6.1-5.1,11.1-11.3,11.2c-6.1,0-11.2-5.2-11.2-11.3 C624.6,408.4,629.6,403.3,635.7,403.3z"/><linearGradient id="SVGID_00000073000317707472041340000006562099785352940185_" x1="537.693" x2="537.693" y1="613.815" y2="168.155" gradientUnits="userSpaceOnUse"><stop offset="0" style="stop-color:#005b97"/><stop offset="1" style="stop-color:#f0f"/></linearGradient><path style="fill:url(#SVGID_00000073000317707472041340000006562099785352940185_)" d="M566.8,398.9 c5.7-16,20.6-16.6,22.8-16.6c0.2,0,0.3,0,0.4,0c7.2,0,13.1-5.7,13.4-12.9c0.3-7.4-5.5-13.6-12.9-13.9c-0.4,0-0.8,0-1.2,0 c-12.9,0-38,7-47.7,34.4c-4.7,13.1-4.7,23.2-4.7,30.5c0,9,0,11.2-6.4,16.6c-12.1,10.3-34.7-14.4-34.9-14.6 c-4.9-5.6-13.3-6.2-18.9-1.3c-5.6,4.9-6.2,13.3-1.3,18.9c9.7,11.2,29,26.5,48.8,26.5c8.1,0,16.2-2.6,23.8-9 c15.8-13.4,15.8-25.9,15.9-36.9C563.7,413.9,563.7,407.7,566.8,398.9z"/><linearGradient id="SVGID_00000074401105423238937640000004002152495457782184_" x1="467.435" x2="467.435" y1="613.815" y2="168.155" gradientUnits="userSpaceOnUse"><stop offset="0" style="stop-color:#005b97"/><stop offset="1" style="stop-color:#f0f"/></linearGradient><path style="fill:url(#SVGID_00000074401105423238937640000004002152495457782184_)" d="M453.3,448.7c7.3-5.7,8.1-13.8,8.7-19.2 c0.6-5.9,1.1-10.2,8-15.7c16.9-13.4,34.6,4.3,36.6,6.4c5,5.4,13.5,5.7,18.9,0.6c5.4-5,5.7-13.5,0.7-18.9 c-12.4-13.3-43.5-32.4-72.8-9.1c-15.8,12.5-17.2,25.9-18,33.8c0,0.2-0.1,0.5-0.1,0.8c-2.4,0.2-7,0.1-15.2-1 c-7.4-1-14.1,4.2-15,11.6c-0.9,7.3,4.2,14.1,11.6,15c5.9,0.8,11.3,1.3,16.2,1.3C441.3,454.2,448.2,452.8,453.3,448.7z"/><linearGradient id="SVGID_00000062170560469884003930000006689056295546685836_" x1="858.281" x2="858.281" y1="613.815" y2="168.155" gradientUnits="userSpaceOnUse"><stop offset="0" style="stop-color:#005b97"/><stop offset="1" style="stop-color:#f0f"/></linearGradient><path style="fill:url(#SVGID_00000062170560469884003930000006689056295546685836_)" d="M848.1,457.4c7.6,6.5,15.7,9,23.8,9 c19.7,0,39.1-15.3,48.8-26.5c4.9-5.6,4.3-14.1-1.3-18.9c-5.6-4.9-14.1-4.3-18.9,1.3c-0.2,0.3-22.9,24.9-34.9,14.6 c-6.4-5.4-6.4-7.6-6.4-16.6c0-7.4-0.1-17.4-4.7-30.5c-10.1-28.2-36.5-34.7-48.9-34.4c-7.3,0.3-13,6.4-12.8,13.7 c0.2,7.3,6.2,13.1,13.5,13.1c0,0,0.1,0,0.1,0c1.9,0.1,17.1,0.3,22.9,16.6c3.1,8.8,3.1,15,3.2,21.6 C832.3,431.5,832.4,444,848.1,457.4z"/><linearGradient id="SVGID_00000036246537136292564430000005490094622716157119_" x1="928.496" x2="928.496" y1="613.815" y2="168.155" gradientUnits="userSpaceOnUse"><stop offset="0" style="stop-color:#005b97"/><stop offset="1" style="stop-color:#f0f"/></linearGradient><path style="fill:url(#SVGID_00000036246537136292564430000005490094622716157119_)" d="M990.8,438c-1-7.3-7.6-12.5-15-11.6 c-8.2,1.1-12.8,1.1-15.2,1c0-0.3-0.1-0.5-0.1-0.8c-0.9-8-2.3-21.3-18-33.8c-29.3-23.3-60.5-4.2-72.9,9.1 c-5,5.4-4.7,13.8,0.7,18.9c5.4,5.1,13.8,4.8,18.9-0.6c2-2.1,19.7-19.8,36.6-6.4c7,5.5,7.4,9.8,8,15.7c0.6,5.4,1.5,13.5,8.7,19.2 c5.2,4.1,12.1,5.6,20.5,5.6c4.9,0,10.3-0.5,16.2-1.3C986.6,452,991.8,445.3,990.8,438z"/><linearGradient id="SVGID_00000092417967019225816860000015961340227313947790_" x1="902.465" x2="902.465" y1="613.815" y2="168.155" gradientUnits="userSpaceOnUse"><stop offset="0" style="stop-color:#005b97"/><stop offset="1" style="stop-color:#f0f"/></linearGradient><path style="fill:url(#SVGID_00000092417967019225816860000015961340227313947790_)" d="M867,358.5c-7.3,0.8-12.6,7.3-11.9,14.5 c0.6,7,6.5,12.2,13.3,12.2c0.4,0,0.8,0,1.2-0.1c1.3-0.1,33-3.4,42.2-42.1c0.5-2.3,1.9-6.2,4.9-7c1.8-0.4,3.9,0.1,5.1,1.5 c1.7,1.9,1.2,4.9,0.4,7.2c-2.5,7,1.2,14.6,8.2,17.1c7,2.5,14.6-1.2,17.1-8.2c4.5-12.8,2.3-25.2-5.9-34.2 c-7.9-8.6-20.3-12.2-31.6-9.3c-12.1,3.2-21,12.9-24.3,26.7C881.3,355.8,868.6,358.2,867,358.5z"/><linearGradient id="SVGID_00000160896234119883855020000014260105397661164193_" x1="493.971" x2="493.971" y1="613.815" y2="168.155" gradientUnits="userSpaceOnUse"><stop offset="0" style="stop-color:#005b97"/><stop offset="1" style="stop-color:#f0f"/></linearGradient><path style="fill:url(#SVGID_00000160896234119883855020000014260105397661164193_)" d="M465.9,361.8c7-2.5,10.7-10.1,8.2-17.1 c-0.8-2.2-1.4-5.3,0.4-7.2c1.2-1.3,3.3-1.9,5.1-1.5c3,0.8,4.4,4.7,4.9,7c9.2,38.6,40.9,42,42.2,42.1c0.4,0,0.8,0.1,1.2,0.1 c6.9,0,12.8-5.2,13.5-12.2c0.7-7.4-4.6-13.9-12-14.6c-1.5-0.2-14.3-2.5-18.9-21.6c-3.3-13.8-12.1-23.6-24.3-26.7 c-11.3-3-23.7,0.7-31.6,9.3c-8.3,9-10.4,21.5-5.9,34.2C451.2,360.6,458.9,364.3,465.9,361.8z"/><linearGradient id="SVGID_00000047031639697063951520000014640544320743435962_" x1="840.588" x2="840.588" y1="613.815" y2="168.155" gradientUnits="userSpaceOnUse"><stop offset="0" style="stop-color:#005b97"/><stop offset="1" style="stop-color:#f0f"/></linearGradient><path style="fill:url(#SVGID_00000047031639697063951520000014640544320743435962_)" d="M803.9,312.3 c-5.7,4.8-6.4,13.2-1.6,18.9c1.8,2.2,18.5,21.2,39.1,22.7c0.9,0.1,1.8,0.1,2.6,0.1c8.5,0,16.4-3,23-8.9 c10.1-8.9,15.3-20.3,14.9-32.8c-0.6-18.1-12.6-33.8-23.7-42.3c-3.3-2.5-2.2-5.6-1.8-6.5c1.3-2.9,4.6-3.9,9.3-3 c7.2,1.5,14.3-3.2,15.8-10.4c1.5-7.3-3.2-14.3-10.4-15.8c-17.1-3.5-32.4,3.6-39.1,18c-6.3,13.7-2.3,29.7,9.8,39 c7.7,6,13.1,14.8,13.3,22c0.1,4.5-1.7,8.2-5.8,11.8c-2.4,2.1-4.4,2.3-5.9,2.2c-7.4-0.5-17.1-9.2-20.6-13.3 C818,308.2,809.6,307.5,803.9,312.3z"/><linearGradient id="SVGID_00000059294123614413347100000015762123344451834034_" x1="565.32" x2="565.32" y1="613.815" y2="168.155" gradientUnits="userSpaceOnUse"><stop offset="0" style="stop-color:#005b97"/><stop offset="1" style="stop-color:#f0f"/></linearGradient><path style="fill:url(#SVGID_00000059294123614413347100000015762123344451834034_)" d="M512,264.2c10.9-0.6,26,1.9,29.2,6 c0.6,0.8,0.1,2.9-0.3,4.1c-0.8,2.5-3.7,7.6-6.3,12c-8.3,14.3-18.7,32.2-11.9,47.9c2.5,5.8,8.4,13.4,22.2,16.8 c3.9,0.9,7.7,1.4,11.4,1.4c9.4,0,17.9-3,24.7-8.8c10.4-8.9,16-23.9,14.7-39.1c-0.3-4,2.6-5.3,3.6-5.6c3.1-1,6.1,0.8,8.5,4.9 c3.7,6.4,12,8.5,18.3,4.8c6.4-3.7,8.5-12,4.8-18.3c-8.7-14.9-24.7-21.7-39.8-16.9c-14.3,4.6-23.5,18.3-22.2,33.4 c0.6,6.5-1.7,13.3-5.5,16.5c-1.1,0.9-4.3,3.7-12.3,1.7c-2.4-0.6-3.5-1.2-3.9-1.5c-0.6-4.5,7.1-17.9,10.5-23.7 c3.8-6.5,7-12.1,8.7-17.4c4.4-13.7,0.2-23.1-4.1-28.6c-13.6-17.6-45.6-16.7-51.9-16.4c-7.4,0.4-13.1,6.7-12.7,14.1 C498.3,259,504.7,264.5,512,264.2z"/><linearGradient id="SVGID_00000009571643475567268450000003645418340818583937_" x1="769.254" x2="769.254" y1="613.815" y2="168.155" gradientUnits="userSpaceOnUse"><stop offset="0" style="stop-color:#005b97"/><stop offset="1" style="stop-color:#f0f"/></linearGradient><path style="fill:url(#SVGID_00000009571643475567268450000003645418340818583937_)" d="M780.6,246.3 c12.9,5.9,17.2,17.9,14.7,26.1c-2.4,7.8-10,8.2-15.9,7.3c-38.7-6.4-57.6,9.1-62.3,25.6c-5.1,17.8,5.5,36.8,25.3,45.1 c1.7,0.7,3.5,1.1,5.2,1.1c5.2,0,10.2-3.1,12.4-8.2c2.9-6.8-0.3-14.7-7.2-17.6c-7.6-3.2-11-9.1-9.9-13c1.3-4.6,11-10,32.2-6.6 c21.9,3.6,40-6.6,45.9-25.9c5.8-19.1-2.4-46-29.2-58.3c-5.9-2.7-8.3-5.3-8.4-6.7c-0.4-3.1,4.3-9.7,8.6-13.4 c5.7-4.7,6.5-13.2,1.8-18.9c-4.7-5.7-13.2-6.5-18.9-1.8c-2.1,1.8-20.7,17.7-18.1,37.5C757.8,226.8,762.8,238.1,780.6,246.3z"/><linearGradient id="SVGID_00000003827298294638132010000001371139887149215409_" x1="713.879" x2="713.879" y1="613.815" y2="168.155" gradientUnits="userSpaceOnUse"><stop offset="0" style="stop-color:#005b97"/><stop offset="1" style="stop-color:#f0f"/></linearGradient><path style="fill:url(#SVGID_00000003827298294638132010000001371139887149215409_)" d="M719.9,260.8c12.4-9.6,24.4,3.3,26.7,6 c2.7,3.2,6.5,4.8,10.3,4.8c3,0,6-1,8.5-3.1c5.7-4.7,6.5-13.2,1.8-18.9c-12-14.5-38.9-29.2-63.7-10.1c-3.4,2.6-12,8.2-16.8,2.9 c-2.4-2.7-4-8.4,0.1-12.8c13.2-14.2,19.4-28.7,18.4-43.1c-1.3-17.9-13.4-28.2-14.8-29.3c-5.8-4.6-14.3-3.8-18.9,2 c-4.6,5.8-3.8,14.1,1.9,18.8c0.2,0.2,4.7,4.2,5.1,10.8c0.3,6.5-3.6,14.3-11.3,22.6c-12.8,13.7-13,35.3-0.4,49.1 C677.8,272.5,698.4,277.2,719.9,260.8z"/><linearGradient id="SVGID_00000068672796952179754330000014473748574079013016_" x1="630.357" x2="630.357" y1="613.815" y2="168.155" gradientUnits="userSpaceOnUse"><stop offset="0" style="stop-color:#005b97"/><stop offset="1" style="stop-color:#f0f"/></linearGradient><path style="fill:url(#SVGID_00000068672796952179754330000014473748574079013016_)" d="M591.5,213.3c5.2-3.7,11-4.5,15.8-2.2 c4.9,2.4,7.9,7.6,8.3,14.3c2.1,36.9,9,58.8,40.9,76.1c7.9,4.3,7.2,9.9,6.5,12.2c-1,3.5-4.4,7.1-10.7,6.5 c-7.4-0.6-13.9,4.9-14.5,12.2c-0.6,7.4,4.9,13.9,12.2,14.5c1.1,0.1,2.2,0.1,3.3,0.1c16.4,0,30.7-10.2,35.3-25.7 c5.1-16.9-2.8-34.4-19.4-43.4c-18.5-10-25-19.3-27-54c-0.9-16.5-9.7-30.3-23.5-36.9c-13.7-6.6-29.7-4.9-42.9,4.5 c-6,4.3-7.5,12.7-3.2,18.7C577.1,216.2,585.5,217.6,591.5,213.3z"/></g></g></switch></svg>